<svg width="25" height="24" viewBox="0 0 25 24" fill="none" xmlns="http://www.w3.org/2000/svg">
<path d="M10.8504 5.9129C11.2219 5.85796 11.6052 5.82849 12 5.82849C16.6672 5.82849 19.7298 9.94703 20.7587 11.5762C20.8833 11.7734 20.9455 11.872 20.9804 12.024C21.0066 12.1383 21.0065 12.3184 20.9803 12.4326C20.9455 12.5847 20.8828 12.6839 20.7574 12.8824C20.4832 13.3163 20.0653 13.9261 19.5115 14.5874M7.17635 7.39646C5.19968 8.73735 3.85775 10.6003 3.24214 11.5748C3.11706 11.7728 3.05451 11.8718 3.01965 12.0239C2.99346 12.1381 2.99345 12.3182 3.01962 12.4324C3.05447 12.5845 3.11673 12.6831 3.24126 12.8802C4.27016 14.5094 7.33276 18.6279 12 18.6279C13.8819 18.6279 15.5029 17.9584 16.8349 17.0523M3.77178 4L20.2282 20.4564M10.0606 10.2888C9.56425 10.7851 9.25726 11.4708 9.25726 12.2282C9.25726 13.743 10.4852 14.971 12 14.971C12.7574 14.971 13.4431 14.664 13.9394 14.1676" stroke="#667085" stroke-width="1.6" stroke-linecap="round" stroke-linejoin="round"/>
</svg>
