<svg width="25" height="25" viewBox="0 0 25 25" fill="none" xmlns="http://www.w3.org/2000/svg">
<path fill-rule="evenodd" clip-rule="evenodd" d="M3.33305 10.2084C3.33305 6.41146 6.41109 3.33341 10.208 3.33341C14.005 3.33341 17.083 6.41146 17.083 10.2084C17.083 14.0054 14.005 17.0834 10.208 17.0834C6.41109 17.0834 3.33305 14.0054 3.33305 10.2084ZM10.208 0.416748C4.80026 0.416748 0.416382 4.80063 0.416382 10.2084C0.416382 15.6162 4.80026 20.0001 10.208 20.0001C12.2342 20.0001 14.1166 19.3847 15.6786 18.3306L21.3822 24.0342C22.1145 24.7665 23.3016 24.7665 24.0339 24.0342C24.7661 23.302 24.7661 22.1148 24.0339 21.3826L18.3302 15.6789C19.3843 14.117 19.9997 12.2346 19.9997 10.2084C19.9997 4.80063 15.6158 0.416748 10.208 0.416748Z" fill="#999999"/>
</svg>
